<svg width="274" height="56" viewBox="0 0 274 56" fill="none" xmlns="http://www.w3.org/2000/svg">
<path d="M82.6868 34L79.2095 27.8582H77.7192V34H74.558V18.2392H80.474C81.6933 18.2392 82.732 18.4574 83.59 18.894C84.4481 19.3155 85.0878 19.895 85.5093 20.6326C85.9459 21.3552 86.1641 22.1681 86.1641 23.0713C86.1641 24.11 85.8631 25.0508 85.2609 25.8938C84.6588 26.7217 83.7631 27.2937 82.5739 27.6099L86.3448 34H82.6868ZM77.7192 25.4873H80.3611C81.2191 25.4873 81.8589 25.2841 82.2804 24.8777C82.7019 24.4562 82.9126 23.8766 82.9126 23.139C82.9126 22.4165 82.7019 21.8595 82.2804 21.4681C81.8589 21.0617 81.2191 20.8584 80.3611 20.8584H77.7192V25.4873ZM100.652 27.4744C100.652 27.926 100.622 28.3324 100.562 28.6937H91.4168C91.4921 29.5969 91.8082 30.3044 92.3652 30.8162C92.9221 31.328 93.6071 31.5839 94.42 31.5839C95.5941 31.5839 96.4296 31.0797 96.9263 30.0711H100.336C99.9746 31.2753 99.2822 32.2689 98.2586 33.0516C97.2349 33.8194 95.978 34.2032 94.4877 34.2032C93.2834 34.2032 92.1996 33.9398 91.2362 33.4129C90.2878 32.871 89.5427 32.1108 89.0008 31.1323C88.4739 30.1539 88.2105 29.0249 88.2105 27.7453C88.2105 26.4508 88.4739 25.3142 89.0008 24.3358C89.5276 23.3573 90.2652 22.6046 91.2136 22.0778C92.162 21.5509 93.2533 21.2875 94.4877 21.2875C95.6769 21.2875 96.7382 21.5434 97.6715 22.0552C98.6198 22.567 99.3499 23.2971 99.8617 24.2454C100.389 25.1787 100.652 26.2551 100.652 27.4744ZM97.3779 26.5712C97.3629 25.7583 97.0693 25.111 96.4973 24.6293C95.9253 24.1325 95.2253 23.8842 94.3974 23.8842C93.6146 23.8842 92.9523 24.125 92.4103 24.6067C91.8835 25.0734 91.5598 25.7282 91.4394 26.5712H97.3779ZM118.494 21.31C120.03 21.31 121.264 21.7842 122.198 22.7326C123.146 23.6659 123.62 24.9755 123.62 26.6615V34H120.459V27.0905C120.459 26.1121 120.211 25.3669 119.714 24.8551C119.217 24.3282 118.54 24.0648 117.682 24.0648C116.824 24.0648 116.139 24.3282 115.627 24.8551C115.13 25.3669 114.882 26.1121 114.882 27.0905V34H111.72V27.0905C111.72 26.1121 111.472 25.3669 110.975 24.8551C110.479 24.3282 109.801 24.0648 108.943 24.0648C108.07 24.0648 107.378 24.3282 106.866 24.8551C106.369 25.3669 106.121 26.1121 106.121 27.0905V34H102.959V21.4907H106.121V23.0035C106.527 22.4767 107.046 22.0627 107.679 21.7616C108.326 21.4606 109.033 21.31 109.801 21.31C110.78 21.31 111.653 21.5208 112.42 21.9423C113.188 22.3487 113.783 22.9358 114.204 23.7035C114.611 22.981 115.198 22.4014 115.966 21.9649C116.748 21.5283 117.591 21.31 118.494 21.31ZM132.175 34.2032C130.97 34.2032 129.886 33.9398 128.923 33.4129C127.96 32.871 127.199 32.1108 126.642 31.1323C126.101 30.1539 125.83 29.0249 125.83 27.7453C125.83 26.4658 126.108 25.3368 126.665 24.3583C127.237 23.3799 128.012 22.6272 128.991 22.1003C129.969 21.5584 131.061 21.2875 132.265 21.2875C133.469 21.2875 134.561 21.5584 135.539 22.1003C136.517 22.6272 137.285 23.3799 137.842 24.3583C138.414 25.3368 138.7 26.4658 138.7 27.7453C138.7 29.0249 138.407 30.1539 137.82 31.1323C137.248 32.1108 136.465 32.871 135.471 33.4129C134.493 33.9398 133.394 34.2032 132.175 34.2032ZM132.175 31.4485C132.747 31.4485 133.281 31.313 133.778 31.042C134.29 30.756 134.696 30.3345 134.997 29.7775C135.298 29.2206 135.449 28.5432 135.449 27.7453C135.449 26.5561 135.133 25.6454 134.5 25.0132C133.883 24.3659 133.123 24.0422 132.22 24.0422C131.317 24.0422 130.556 24.3659 129.939 25.0132C129.337 25.6454 129.036 26.5561 129.036 27.7453C129.036 28.9346 129.33 29.8528 129.917 30.5001C130.519 31.1323 131.271 31.4485 132.175 31.4485ZM144.7 24.0874V30.1388C144.7 30.5603 144.797 30.8689 144.993 31.0646C145.204 31.2452 145.55 31.3356 146.032 31.3356H147.5V34H145.512C142.848 34 141.516 32.7054 141.516 30.1162V24.0874H140.026V21.4907H141.516V18.3972H144.7V21.4907H147.5V24.0874H144.7ZM161.402 27.4744C161.402 27.926 161.372 28.3324 161.312 28.6937H152.167C152.242 29.5969 152.558 30.3044 153.115 30.8162C153.672 31.328 154.357 31.5839 155.17 31.5839C156.344 31.5839 157.179 31.0797 157.676 30.0711H161.086C160.725 31.2753 160.032 32.2689 159.008 33.0516C157.985 33.8194 156.728 34.2032 155.238 34.2032C154.033 34.2032 152.949 33.9398 151.986 33.4129C151.038 32.871 150.293 32.1108 149.751 31.1323C149.224 30.1539 148.96 29.0249 148.96 27.7453C148.96 26.4508 149.224 25.3142 149.751 24.3358C150.278 23.3573 151.015 22.6046 151.963 22.0778C152.912 21.5509 154.003 21.2875 155.238 21.2875C156.427 21.2875 157.488 21.5434 158.421 22.0552C159.37 22.567 160.1 23.2971 160.612 24.2454C161.138 25.1787 161.402 26.2551 161.402 27.4744ZM158.128 26.5712C158.113 25.7583 157.819 25.111 157.247 24.6293C156.675 24.1325 155.975 23.8842 155.147 23.8842C154.364 23.8842 153.702 24.125 153.16 24.6067C152.633 25.0734 152.31 25.7282 152.189 26.5712H158.128ZM178.031 25.9164C178.92 26.0819 179.65 26.526 180.222 27.2486C180.794 27.9711 181.08 28.7991 181.08 29.7324C181.08 30.5754 180.869 31.3205 180.447 31.9678C180.041 32.6 179.446 33.0968 178.664 33.4581C177.881 33.8194 176.955 34 175.886 34H169.09V18.2392H175.593C176.662 18.2392 177.58 18.4123 178.348 18.7585C179.13 19.1047 179.717 19.5864 180.109 20.2036C180.515 20.8208 180.718 21.5208 180.718 22.3036C180.718 23.2218 180.47 23.9895 179.973 24.6067C179.492 25.2239 178.844 25.6605 178.031 25.9164ZM172.251 24.7422H175.141C175.894 24.7422 176.473 24.5766 176.88 24.2454C177.286 23.8992 177.489 23.41 177.489 22.7777C177.489 22.1455 177.286 21.6563 176.88 21.31C176.473 20.9638 175.894 20.7907 175.141 20.7907H172.251V24.7422ZM175.435 31.4259C176.202 31.4259 176.797 31.2452 177.219 30.884C177.655 30.5227 177.873 30.0109 177.873 29.3485C177.873 28.6711 177.648 28.1443 177.196 27.7679C176.744 27.3765 176.135 27.1808 175.367 27.1808H172.251V31.4259H175.435ZM185.202 20.0004C184.645 20.0004 184.179 19.8273 183.802 19.4811C183.441 19.1198 183.26 18.6757 183.26 18.1488C183.26 17.622 183.441 17.1854 183.802 16.8392C184.179 16.4779 184.645 16.2973 185.202 16.2973C185.759 16.2973 186.218 16.4779 186.58 16.8392C186.956 17.1854 187.144 17.622 187.144 18.1488C187.144 18.6757 186.956 19.1198 186.58 19.4811C186.218 19.8273 185.759 20.0004 185.202 20.0004ZM186.76 21.4907V34H183.599V21.4907H186.76ZM193.045 23.4326C193.451 22.7702 193.978 22.2509 194.625 21.8745C195.288 21.4982 196.04 21.31 196.883 21.31V24.6293H196.048C195.054 24.6293 194.302 24.8626 193.79 25.3293C193.293 25.7959 193.045 26.6088 193.045 27.7679V34H189.884V21.4907H193.045V23.4326ZM198.2 27.7002C198.2 26.4357 198.448 25.3142 198.945 24.3358C199.457 23.3573 200.149 22.6046 201.022 22.0778C201.895 21.5509 202.866 21.2875 203.935 21.2875C204.748 21.2875 205.523 21.4681 206.261 21.8294C206.998 22.1756 207.585 22.6423 208.022 23.2293V17.2908H211.228V34H208.022V32.1484C207.631 32.7656 207.081 33.2624 206.374 33.6387C205.666 34.0151 204.846 34.2032 203.912 34.2032C202.859 34.2032 201.895 33.9323 201.022 33.3903C200.149 32.8484 199.457 32.0882 198.945 31.1098C198.448 30.1162 198.2 28.9797 198.2 27.7002ZM208.045 27.7453C208.045 26.9776 207.894 26.3228 207.593 25.7809C207.292 25.2239 206.886 24.8024 206.374 24.5164C205.862 24.2153 205.312 24.0648 204.725 24.0648C204.138 24.0648 203.596 24.2078 203.1 24.4938C202.603 24.7798 202.196 25.2013 201.88 25.7583C201.579 26.3002 201.429 26.9475 201.429 27.7002C201.429 28.4528 201.579 29.1152 201.88 29.6872C202.196 30.2442 202.603 30.6732 203.1 30.9743C203.611 31.2753 204.153 31.4259 204.725 31.4259C205.312 31.4259 205.862 31.2829 206.374 30.9969C206.886 30.6958 207.292 30.2743 207.593 29.7324C207.894 29.1754 208.045 28.5131 208.045 27.7453ZM228.886 18.2392V29.3034C228.886 30.8388 228.442 32.0355 227.554 32.8936C226.666 33.7366 225.477 34.1581 223.986 34.1581C222.481 34.1581 221.262 33.7215 220.329 32.8484C219.41 31.9753 218.951 30.756 218.951 29.1905H222.112C222.127 29.8679 222.285 30.3947 222.587 30.7711C222.903 31.1474 223.354 31.3356 223.941 31.3356C224.513 31.3356 224.95 31.1549 225.251 30.7936C225.552 30.4324 225.703 29.9356 225.703 29.3034V18.2392H228.886ZM238.129 34.2032C236.924 34.2032 235.84 33.9398 234.877 33.4129C233.914 32.871 233.153 32.1108 232.596 31.1323C232.055 30.1539 231.784 29.0249 231.784 27.7453C231.784 26.4658 232.062 25.3368 232.619 24.3583C233.191 23.3799 233.966 22.6272 234.945 22.1003C235.923 21.5584 237.015 21.2875 238.219 21.2875C239.423 21.2875 240.515 21.5584 241.493 22.1003C242.471 22.6272 243.239 23.3799 243.796 24.3583C244.368 25.3368 244.654 26.4658 244.654 27.7453C244.654 29.0249 244.361 30.1539 243.774 31.1323C243.202 32.1108 242.419 32.871 241.425 33.4129C240.447 33.9398 239.348 34.2032 238.129 34.2032ZM238.129 31.4485C238.701 31.4485 239.235 31.313 239.732 31.042C240.244 30.756 240.65 30.3345 240.951 29.7775C241.252 29.2206 241.403 28.5432 241.403 27.7453C241.403 26.5561 241.087 25.6454 240.454 25.0132C239.837 24.3659 239.077 24.0422 238.174 24.0422C237.271 24.0422 236.51 24.3659 235.893 25.0132C235.291 25.6454 234.99 26.5561 234.99 27.7453C234.99 28.9346 235.284 29.8528 235.871 30.5001C236.473 31.1323 237.225 31.4485 238.129 31.4485ZM250.134 23.3197C250.541 22.7175 251.098 22.2283 251.805 21.852C252.528 21.4756 253.348 21.2875 254.266 21.2875C255.335 21.2875 256.299 21.5509 257.157 22.0778C258.03 22.6046 258.715 23.3573 259.211 24.3358C259.723 25.2992 259.979 26.4206 259.979 27.7002C259.979 28.9797 259.723 30.1162 259.211 31.1098C258.715 32.0882 258.03 32.8484 257.157 33.3903C256.299 33.9323 255.335 34.2032 254.266 34.2032C253.333 34.2032 252.513 34.0226 251.805 33.6613C251.113 33.285 250.556 32.8033 250.134 32.2162V34H246.973V17.2908H250.134V23.3197ZM256.75 27.7002C256.75 26.9475 256.592 26.3002 256.276 25.7583C255.975 25.2013 255.569 24.7798 255.057 24.4938C254.56 24.2078 254.018 24.0648 253.431 24.0648C252.859 24.0648 252.317 24.2153 251.805 24.5164C251.308 24.8024 250.902 25.2239 250.586 25.7809C250.285 26.3379 250.134 26.9927 250.134 27.7453C250.134 28.498 250.285 29.1528 250.586 29.7098C250.902 30.2668 251.308 30.6958 251.805 30.9969C252.317 31.2829 252.859 31.4259 253.431 31.4259C254.018 31.4259 254.56 31.2753 255.057 30.9743C255.569 30.6732 255.975 30.2442 256.276 29.6872C256.592 29.1302 256.75 28.4679 256.75 27.7002ZM267.063 34.2032C266.04 34.2032 265.121 34.0226 264.309 33.6613C263.496 33.285 262.848 32.7807 262.367 32.1484C261.9 31.5162 261.644 30.8162 261.599 30.0485H264.783C264.843 30.5302 265.076 30.9291 265.483 31.2452C265.904 31.5614 266.424 31.7194 267.041 31.7194C267.643 31.7194 268.109 31.599 268.441 31.3581C268.787 31.1173 268.96 30.8087 268.96 30.4324C268.96 30.0259 268.749 29.7249 268.328 29.5292C267.921 29.3184 267.266 29.0926 266.363 28.8518C265.43 28.626 264.662 28.3926 264.06 28.1518C263.473 27.9109 262.961 27.5421 262.525 27.0454C262.103 26.5486 261.892 25.8787 261.892 25.0357C261.892 24.3433 262.088 23.711 262.48 23.139C262.886 22.567 263.458 22.1154 264.196 21.7842C264.948 21.453 265.829 21.2875 266.837 21.2875C268.328 21.2875 269.517 21.6638 270.405 22.4165C271.293 23.1541 271.782 24.1551 271.873 25.4196H268.847C268.802 24.9228 268.591 24.5315 268.215 24.2454C267.854 23.9444 267.364 23.7938 266.747 23.7938C266.175 23.7938 265.731 23.8992 265.415 24.11C265.114 24.3207 264.963 24.6142 264.963 24.9906C264.963 25.4121 265.174 25.7357 265.596 25.9615C266.017 26.1723 266.672 26.3905 267.56 26.6163C268.463 26.8421 269.208 27.0755 269.795 27.3163C270.383 27.5572 270.887 27.9335 271.308 28.4453C271.745 28.9421 271.971 29.6044 271.986 30.4324C271.986 31.1549 271.782 31.8022 271.376 32.3742C270.985 32.9463 270.413 33.3979 269.66 33.729C268.922 34.0452 268.057 34.2032 267.063 34.2032Z" fill="black"/>
<circle cx="28.5" cy="28.5" r="22.5" fill="#1E1E1E"/>
<path d="M56 28C56 43.4706 43.4706 56 28 56C12.5301 56 0 43.4706 0 28C0 12.5301 12.5301 0 28 0C43.4706 0 56 12.5301 56 28ZM22.8763 42.7703C35.2946 42.7703 42.0845 32.4804 42.0845 23.5622C42.0845 23.2684 42.0845 22.9745 42.07 22.6944C43.3861 21.7422 44.534 20.5524 45.4444 19.1944C44.2402 19.7265 42.9385 20.0903 41.5661 20.2586C42.966 19.4182 44.0301 18.1021 44.534 16.5203C43.2324 17.2906 41.7906 17.8501 40.25 18.1584C39.0184 16.8423 37.2684 16.0301 35.322 16.0301C31.5982 16.0301 28.5747 19.0544 28.5747 22.7782C28.5747 23.3102 28.6303 23.8286 28.7566 24.3181C23.142 24.0387 18.1721 21.3501 14.8403 17.2625C14.2664 18.2566 13.93 19.4182 13.93 20.6506C13.93 22.9882 15.1205 25.0602 16.9405 26.2644C15.8345 26.2363 14.7985 25.928 13.8881 25.4241C13.8881 25.4522 13.8881 25.4804 13.8881 25.5086C13.8881 28.784 16.212 31.5 19.3063 32.1303C18.7461 32.284 18.144 32.3685 17.5282 32.3685C17.0943 32.3685 16.6741 32.3266 16.2546 32.2422C17.108 34.93 19.6001 36.8763 22.5544 36.9327C20.2441 38.7382 17.3325 39.8161 14.1682 39.8161C13.6224 39.8161 13.0903 39.7887 12.5583 39.7186C15.5125 41.6506 19.0681 42.7703 22.8763 42.7703Z" fill="white"/>
<path d="M41.2535 14.4108L27.8311 28.9472L34.1264 27.0636L25.0306 38.2054L29.8966 36.8164L20.1878 52.3866L35.8425 33.3583L29.7182 35.0021L39.24 23.5651L33.3576 25.3663L41.2535 14.4108Z" fill="white"/>
</svg>
